<svg width="140" height="36" viewBox="0 0 140 36" fill="none" xmlns="http://www.w3.org/2000/svg">
<path d="M21.2407 1.37012C19.711 1.37012 18.1963 1.67141 16.7831 2.25678C15.3699 2.84215 14.0858 3.70015 13.0042 4.78178C11.9226 5.86341 11.0646 7.14749 10.4792 8.56071C9.89382 9.97393 9.59253 11.4886 9.59253 13.0183C9.59253 14.5479 9.89382 16.0626 10.4792 17.4758C11.0646 18.889 11.9226 20.1731 13.0042 21.2548C14.0858 22.3364 15.3699 23.1944 16.7831 23.7798C18.1963 24.3651 19.711 24.6664 21.2407 24.6664V22.0387C20.0561 22.0387 18.8831 21.8054 17.7887 21.3521C16.6943 20.8988 15.6999 20.2343 14.8622 19.3967C14.0246 18.5591 13.3602 17.5647 12.9069 16.4703C12.4535 15.3758 12.2202 14.2029 12.2202 13.0183C12.2202 11.8337 12.4535 10.6607 12.9069 9.56628C13.3602 8.47187 14.0246 7.47746 14.8622 6.63983C15.6999 5.8022 16.6943 5.13776 17.7887 4.68444C18.8831 4.23112 20.0561 3.9978 21.2407 3.9978V1.37012Z" fill="#74A3C6"/>
<path d="M11.6482 34.2593C13.1779 34.2593 14.6926 33.958 16.1058 33.3726C17.519 32.7872 18.8031 31.9292 19.8847 30.8476C20.9664 29.766 21.8244 28.4819 22.4097 27.0687C22.9951 25.6555 23.2964 24.1408 23.2964 22.6111C23.2964 21.0815 22.9951 19.5668 22.4097 18.1536C21.8244 16.7404 20.9664 15.4563 19.8847 14.3746C18.8031 13.293 17.519 12.435 16.1058 11.8496C14.6926 11.2643 13.1779 10.963 11.6482 10.963L11.6482 13.5907C12.8328 13.5907 14.0058 13.824 15.1002 14.2773C16.1946 14.7306 17.189 15.3951 18.0267 16.2327C18.8643 17.0703 19.5287 18.0647 19.9821 19.1591C20.4354 20.2536 20.6687 21.4265 20.6687 22.6111C20.6687 23.7957 20.4354 24.9687 19.9821 26.0631C19.5287 27.1575 18.8643 28.1519 18.0267 28.9896C17.189 29.8272 16.1946 30.4916 15.1002 30.945C14.0058 31.3983 12.8328 31.6316 11.6482 31.6316L11.6482 34.2593Z" fill="#74A3C6"/>
<path d="M31.324 23.6285C36.831 23.93 40.5594 24.0807 42.5089 24.0807C42.9712 24.0807 43.333 23.9501 43.5943 23.6888C43.8757 23.4074 44.0163 23.0356 44.0163 22.5733V19.86H37.0823C34.9719 19.86 33.4343 19.3877 32.4696 18.443C31.525 17.4783 31.0526 15.9407 31.0526 13.8304V12.9259C31.0526 10.8156 31.525 9.28805 32.4696 8.34341C33.4343 7.37867 34.9719 6.8963 37.0823 6.8963H47.6643V11.117H38.2882C37.0823 11.117 36.4793 11.72 36.4793 12.9259V13.5289C36.4793 14.7348 37.0823 15.3378 38.2882 15.3378H43.7149C45.6845 15.3378 47.1317 15.8 48.0562 16.7246C48.9807 17.6491 49.443 19.0962 49.443 21.0659V22.5733C49.443 24.543 48.9807 25.9901 48.0562 26.9147C47.1317 27.8392 45.6845 28.3015 43.7149 28.3015C42.6898 28.3015 41.6045 28.2814 40.4589 28.2412L37.6852 28.1206C35.6352 28.0201 33.5147 27.8794 31.324 27.6985V23.6285ZM62.1029 28H51.2495V23.7793H53.9629V11.117H51.2495V6.8963H62.1029V11.117H59.3895V23.7793H62.1029V28ZM76.5716 6.8963C78.8428 6.8963 80.5612 7.48921 81.727 8.67504C82.9128 9.84077 83.5057 11.5592 83.5057 13.8304V21.0659C83.5057 23.3371 82.9128 25.0656 81.727 26.2514C80.5612 27.4171 78.8428 28 76.5716 28H64.8139V6.8963H76.5716ZM78.079 13.8304C78.079 12.0215 77.1746 11.117 75.3657 11.117H70.2405V23.7793H75.3657C77.1746 23.7793 78.079 22.8748 78.079 21.0659V13.8304ZM103.244 28H86.5123V6.8963H103.244V11.117H91.9389V15.187H100.833V19.4078H91.9389V23.7793H103.244V28ZM117.859 6.8963H123.889L117.106 17.4481L124.04 28H118.01L113.789 21.3674L109.569 28H103.539L110.473 17.4481L103.69 6.8963H109.689L113.789 13.5289L117.859 6.8963Z" fill="#DBDBDB"/>
</svg>
