<svg width="72" height="55" viewBox="0 0 72 55" fill="none" xmlns="http://www.w3.org/2000/svg">
<rect y="18.7896" width="48" height="39" rx="7" transform="rotate(-23.0449 0 18.7896)" fill="#48C7B0"/>
<g filter="url(#filter0_b_89834_666)">
<rect x="24" y="14" width="48" height="39" rx="7" fill="url(#paint0_radial_89834_666)" fill-opacity="0.81"/>
</g>
<path d="M57.6061 28.7879C60.0328 28.7879 62 26.8206 62 24.3939C62 21.9672 60.0328 20 57.6061 20C55.1794 20 53.2122 21.9672 53.2122 24.3939C53.2122 26.8206 55.1794 28.7879 57.6061 28.7879Z" fill="#48C7B0"/>
<path d="M57.1273 26.8H58.5673V28H57.1273V26.8ZM57.2873 26.32L57.1273 24.64V22.4H58.5673V24.64L58.4073 26.32H57.2873Z" fill="white"/>
<path d="M34.7576 27.0303L57.1667 30.9848H58.0455L59.3636 31.4242L60.2424 44.606H34.7576V27.0303Z" fill="white"/>
<path d="M57.8873 30.9673L58.8188 31.6703L51.0679 41.917L44.8285 32.6194L39.257 40.7745L35.3024 37.2594L36.5152 35.8621L38.8879 37.9624L44.8285 29.28L51.147 38.6918L56.9997 30.9497C56.113 30.8748 55.2508 30.6197 54.4661 30.2C53.6814 29.7802 52.9907 29.2047 52.4362 28.5087C51.8816 27.8127 51.4751 27.0108 51.2413 26.1522C51.0075 25.2935 50.9515 24.3962 51.0767 23.5151H34.7576C34.2914 23.5151 33.8444 23.7003 33.5148 24.0299C33.1852 24.3595 33 24.8066 33 25.2727V44.6061C33 45.0722 33.1852 45.5192 33.5148 45.8488C33.8444 46.1785 34.2914 46.3636 34.7576 46.3636H59.3636C59.8298 46.3636 60.2768 46.1785 60.6064 45.8488C60.936 45.5192 61.1212 45.0722 61.1212 44.6061V29.9654C60.1497 30.5771 59.0344 30.9226 57.8873 30.9673Z" fill="#48C7B0"/>
<defs>
<filter id="filter0_b_89834_666" x="22" y="12" width="52" height="43" filterUnits="userSpaceOnUse" color-interpolation-filters="sRGB">
<feFlood flood-opacity="0" result="BackgroundImageFix"/>
<feGaussianBlur in="BackgroundImage" stdDeviation="1"/>
<feComposite in2="SourceAlpha" operator="in" result="effect1_backgroundBlur_89834_666"/>
<feBlend mode="normal" in="SourceGraphic" in2="effect1_backgroundBlur_89834_666" result="shape"/>
</filter>
<radialGradient id="paint0_radial_89834_666" cx="0" cy="0" r="1" gradientUnits="userSpaceOnUse" gradientTransform="translate(25.5 16.5) rotate(37.6004) scale(54.9045 67.5747)">
<stop stop-color="white"/>
<stop offset="0.982292" stop-color="#979797" stop-opacity="0.86"/>
</radialGradient>
</defs>
</svg>
